<svg id="Layer_1" data-name="Layer 1" xmlns="http://www.w3.org/2000/svg" viewBox="0 0 682 190"><defs><style>.cls-1{fill:#2f2c68;}.cls-1,.cls-2{fill-rule:evenodd;}.cls-2{fill:#00a4cb;}</style></defs><path class="cls-1" d="M226.47,97.76H229q12.81,0,17.33-2.55c3-1.71,4.51-4.6,4.51-8.68,0-3.44-1.29-6-3.86-7.57s-6.65-2.4-12.18-2.4H230Zm-35.05,52.45,15.69-93.53h27.12a119.68,119.68,0,0,1,16.93.87A33.07,33.07,0,0,1,261,60.46a25.55,25.55,0,0,1,11.3,9.95,29.19,29.19,0,0,1,3.75,15.16,33.48,33.48,0,0,1-4,16.22,28.66,28.66,0,0,1-10.88,11.51,29.53,29.53,0,0,1-9.6,3.36q-5.52,1-17.32,1H223.16l-5.53,32.58ZM302.5,120.26a13.07,13.07,0,0,0,4,10q4,3.76,10.53,3.77a15.41,15.41,0,0,0,11.92-5.28,18.82,18.82,0,0,0,4.77-13.16,12.81,12.81,0,0,0-4-9.75,14.6,14.6,0,0,0-10.4-3.72,15.67,15.67,0,0,0-12.05,5.16,18.47,18.47,0,0,0-4.77,13Zm26.56,21.32a34.14,34.14,0,0,1-11,8.22,30.46,30.46,0,0,1-13,2.77,24.67,24.67,0,0,1-19.24-8.38q-7.53-8.37-7.52-21.71,0-16.76,10.19-27.79a33.1,33.1,0,0,1,25.41-11.07,27.92,27.92,0,0,1,12.68,2.81,29.7,29.7,0,0,1,10.13,8.62l1.53-9.33h22.77l-10.78,64.49H327.91Zm55.87,5.4L365.58,85.72h24.86l5.95,27.85c.09.36.23.94.41,1.65a52.75,52.75,0,0,1,1.41,9.57,51.72,51.72,0,0,1,1.93-5.32c.78-1.9,1.72-4,2.85-6.17l14.1-27.58h25.83l-52.88,93H364.9Z"/><path class="cls-2" d="M476.15,98.31h2.32q11.92,0,16.13-2.54t4.2-8.68c0-3.45-1.2-6-3.6-7.57s-6.19-2.4-11.34-2.4h-4.39Zm-32.63,52.46,14.62-93.53h25.23a104,104,0,0,1,15.77.87A29.24,29.24,0,0,1,508.31,61,24.34,24.34,0,0,1,518.83,71a31,31,0,0,1,3.49,15.16,35.4,35.4,0,0,1-3.76,16.22,27.87,27.87,0,0,1-10.12,11.51,26.29,26.29,0,0,1-8.94,3.36,95.68,95.68,0,0,1-16.13,1H473.06l-5.13,32.58Zm103.41-30a13.57,13.57,0,0,0,3.71,10,13.2,13.2,0,0,0,9.81,3.77,13.93,13.93,0,0,0,11.1-5.28A19.66,19.66,0,0,0,576,116.11a13.28,13.28,0,0,0-3.7-9.75,13.09,13.09,0,0,0-9.7-3.72,14.2,14.2,0,0,0-11.22,5.16,19.33,19.33,0,0,0-4.43,13Zm24.72,21.31a32.07,32.07,0,0,1-10.21,8.23,26.82,26.82,0,0,1-12.08,2.77,22.3,22.3,0,0,1-17.92-8.38q-7-8.37-7-21.71,0-16.76,9.49-27.79t23.65-11.06A24.78,24.78,0,0,1,569.39,87a28.23,28.23,0,0,1,9.42,8.64l1.43-9.33h21.19l-10,64.49H570.58Zm52.61-90.38H646.8l-15.57,99H608.75Z"/><path class="cls-2" d="M70.48,168.94l18-116.46c.43-3.35,1.91-5.82,4.6-5.82h30.1c9.35,0,16.42.37,21.12,1.17a39.27,39.27,0,0,1,12.29,3.87A32.57,32.57,0,0,1,170.66,65c3.13,5.66,4.68,12.4,4.68,20.28a47.57,47.57,0,0,1-5,21.71,37.26,37.26,0,0,1-13.58,15.4c-3.35,2.1-7.47,3.13-12,4.5-8,2.43-19.26,3-27.84,3-3.49.87-4.91,3.66-5.47,7.83l-4.85,31.16a7.2,7.2,0,0,1-5.24,5H74c-3.16-.41-4.09-2.22-3.55-4.94Z"/><path class="cls-1" d="M35.36,152.07,55.76,18c.49-3.87,2.18-6.71,5.23-6.71H95.18a240.17,240.17,0,0,1,24,1.34c57.07,4.81,49.94,59.1,14.16,85.92-3.61,2.71-8.49,3.59-13.6,5.17-9.09,2.8-21.88,3.44-31.61,3.44-4,1-5.58,4.21-6.21,9L76.4,152a8.27,8.27,0,0,1-6,5.74l-31.08,0c-3.57-.47-4.62-2.54-4-5.69Z"/></svg>