<svg id="Layer_1" data-name="Layer 1" xmlns="http://www.w3.org/2000/svg" viewBox="0 0 480 190"><defs><style>.cls-1{fill:#e4172a;}</style></defs><path id="path2" class="cls-1" d="M407,20.71a32.74,32.74,0,0,0-25.57,31.95,10.06,10.06,0,0,0,.11,1.09c23.08,5,34.69,20.59,34.69,41.29a42,42,0,0,1-41.88,42c-23.05,0-44.55-19.37-44.55-48.09,0-35.08,29.81-67.95,72.33-69,.77,0,2,0,3.22.07a84,84,0,0,0-30.16-5.54c-45.6,0-82.61,36.06-82.61,80.5s37,80.5,82.61,80.5,82.57-36.06,82.57-80.5c0-33.43-21-62.12-50.76-74.29Z"/><rect class="cls-1" x="100.36" y="32.98" width="9.87" height="9.15"/><rect class="cls-1" x="85.31" y="32.98" width="9.95" height="9.15"/><rect class="cls-1" x="92.72" y="19.84" width="9.87" height="9.15"/><path class="cls-1" d="M115,66.4c0,4.78-1.91,7.17-5.65,7.17h-7.08a23.45,23.45,0,0,0,1.35-8V48.18H92.48V66.4c0,4.78-1.92,7.17-5.65,7.17H80.94c.08-1,.15-2.08.15-3.19V48.1H69.87V69.35c0,10.5-5.33,17.74-13.93,17.74s-14-7.47-14-17.74V48.1H30.79V70.38c0,15.28,11.15,27.06,25.15,27.06,9.47,0,16.64-4.45,21.81-13.21h32c9.23,0,16.47-7.88,16.47-18.78V48.18H115Z"/><path class="cls-1" d="M220.68,48.1h-6.13l10-15.12H211.36L195.45,58.37H215.5c8.44,0,15.05,6.52,16.16,15.2H155.42c-8.2,0-9.55-2.87-9.55-8.28V32.89H134.72V71.1c0,8.19,4.94,13.13,13.46,13.13h95.58V80.1C243.76,61.39,235.88,49.69,220.68,48.1Z"/><path class="cls-1" d="M51.22,170.16q-13.39,0-21.16-8.45t-7.78-23.19q0-14.7,7.8-23.16t21.14-8.45a30,30,0,0,1,13.23,2.88A24.08,24.08,0,0,1,74,117.93a23.64,23.64,0,0,1,4.06,12H65.62a14.38,14.38,0,0,0-4.85-9,14.2,14.2,0,0,0-9.55-3.39,13.79,13.79,0,0,0-11.57,5.68q-4.32,5.67-4.32,15.29,0,9.78,4.28,15.44a13.81,13.81,0,0,0,11.65,5.65,14.62,14.62,0,0,0,9.53-3.13,13.92,13.92,0,0,0,4.87-8.55H78.11a23.29,23.29,0,0,1-8.34,16.24Q62.48,170.17,51.22,170.16Z"/><path class="cls-1" d="M123.91,169.1l-4.66-14.83H97.77L93.11,169.1H80L101.2,108h15L137.5,169.1Zm-15.55-49.44-7.84,25h16l-7.84-25Z"/><path class="cls-1" d="M140.17,151.69H152.5a8.09,8.09,0,0,0,4,6,15.52,15.52,0,0,0,8.66,2.31,14.35,14.35,0,0,0,8.28-2.18,6.5,6.5,0,0,0,3.2-5.57,5.72,5.72,0,0,0-2.37-4.78q-2.37-1.83-7.92-3.06l-8-1.73q-16.82-3.6-16.81-17.07a16.45,16.45,0,0,1,6.54-13.56q6.54-5.16,16.84-5.17,10.59,0,16.9,5a16.66,16.66,0,0,1,6.48,13.36h-12a7.92,7.92,0,0,0-3.41-6.08,13.39,13.39,0,0,0-8-2.22,12.87,12.87,0,0,0-7.64,2.08,6.4,6.4,0,0,0-2.9,5.46,5.38,5.38,0,0,0,2.35,4.54,21.61,21.61,0,0,0,7.64,3l7.42,1.57q9.18,2,13.38,6.08t4.2,11.12a17,17,0,0,1-6.7,14.13q-6.69,5.22-18.09,5.23-11.06,0-17.6-4.94A16.82,16.82,0,0,1,140.17,151.69Z"/><path class="cls-1" d="M250.35,169.1H237.56V143.34H210V169.1h-12.8V108H210v24.82h27.53V108h12.79Z"/></svg>